<svg width="50" height="50" viewBox="0 0 50 50" fill="none" xmlns="http://www.w3.org/2000/svg">
<path d="M47.5018 8.75177C47.5018 30.1528 30.1528 47.5018 8.75183 47.5018C7.78628 47.5018 6.82898 47.4665 5.88113 47.397C4.79338 47.3173 4.24948 47.2775 3.75441 46.9925C3.34436 46.7565 2.95548 46.338 2.74996 45.9118C2.50183 45.3973 2.50183 44.797 2.50183 43.5968V36.5535C2.50183 35.544 2.50183 35.0393 2.66796 34.6068C2.81471 34.2245 3.05306 33.8843 3.36208 33.6158C3.71191 33.3118 4.18623 33.1393 5.13486 32.7943L13.152 29.879C14.2557 29.4778 14.8075 29.277 15.3311 29.311C15.7928 29.341 16.237 29.4988 16.6145 29.7663C17.0425 30.0695 17.3447 30.573 17.9489 31.5803L20.0018 35.0018C26.6266 32.0015 31.9971 26.624 35.0018 20.0018L31.5803 17.9488C30.5731 17.3446 30.0696 17.0425 29.7663 16.6144C29.4988 16.237 29.3411 15.7927 29.3111 15.331C29.2771 14.8074 29.4778 14.2556 29.8791 13.1519L32.7943 5.13479C33.1393 4.18617 33.3118 3.71185 33.6158 3.36202C33.8843 3.053 34.2246 2.81465 34.6068 2.6679C35.0393 2.50177 35.5441 2.50177 36.5536 2.50177H43.5968C44.7971 2.50177 45.3973 2.50177 45.9118 2.7499C46.3381 2.95542 46.7566 3.34429 46.9926 3.75434C47.2776 4.24944 47.3173 4.79332 47.3971 5.88109C47.4666 6.82892 47.5018 7.78622 47.5018 8.75177Z" stroke="white" stroke-width="5" stroke-linecap="round" stroke-linejoin="round"/>
</svg>
